<svg width="20" height="22" viewBox="0 0 20 22" fill="none" xmlns="http://www.w3.org/2000/svg">
<g id="Iconly/Light-Outline/Calendar">
<g id="Calendar">
<path id="Combined-Shape" fill-rule="evenodd" clip-rule="evenodd" d="M13.8561 0.626984C14.2656 0.626984 14.5978 0.959277 14.5978 1.36871L14.5983 2.20717C16.0423 2.30617 17.2416 2.80078 18.0904 3.65135C19.0171 4.58197 19.5046 5.92004 19.4997 7.52514V16.5475C19.4997 19.8427 17.407 21.8899 14.0396 21.8899H5.67488C2.30744 21.8899 0.214783 19.8141 0.214783 16.4723V7.52316C0.214783 4.41502 2.08102 2.41992 5.1247 2.20751L5.12531 1.36871C5.12531 0.959277 5.4576 0.626984 5.86703 0.626984C6.27647 0.626984 6.60876 0.959277 6.60876 1.36871L6.60846 2.18856H13.1139L13.1144 1.36871C13.1144 0.959277 13.4467 0.626984 13.8561 0.626984ZM18.0162 9.43276H1.69824V16.4723C1.69824 19.01 3.11048 20.4065 5.67488 20.4065H14.0396C16.604 20.4065 18.0163 19.0357 18.0163 16.5475L18.0162 9.43276ZM14.2593 15.6556C14.6688 15.6556 15.001 15.9879 15.001 16.3974C15.001 16.8068 14.6688 17.1391 14.2593 17.1391C13.8499 17.1391 13.5136 16.8068 13.5136 16.3974C13.5136 15.9879 13.841 15.6556 14.2504 15.6556H14.2593ZM9.87077 15.6556C10.2802 15.6556 10.6125 15.9879 10.6125 16.3974C10.6125 16.8068 10.2802 17.1391 9.87077 17.1391C9.46134 17.1391 9.12509 16.8068 9.12509 16.3974C9.12509 15.9879 9.45244 15.6556 9.86187 15.6556H9.87077ZM5.47303 15.6556C5.88246 15.6556 6.21476 15.9879 6.21476 16.3974C6.21476 16.8068 5.88246 17.1391 5.47303 17.1391C5.0636 17.1391 4.72636 16.8068 4.72636 16.3974C4.72636 15.9879 5.0547 15.6556 5.46413 15.6556H5.47303ZM14.2593 11.8118C14.6688 11.8118 15.001 12.1441 15.001 12.5535C15.001 12.963 14.6688 13.2953 14.2593 13.2953C13.8499 13.2953 13.5136 12.963 13.5136 12.5535C13.5136 12.1441 13.841 11.8118 14.2504 11.8118H14.2593ZM9.87077 11.8118C10.2802 11.8118 10.6125 12.1441 10.6125 12.5535C10.6125 12.963 10.2802 13.2953 9.87077 13.2953C9.46134 13.2953 9.12509 12.963 9.12509 12.5535C9.12509 12.1441 9.45244 11.8118 9.86187 11.8118H9.87077ZM5.47303 11.8118C5.88246 11.8118 6.21476 12.1441 6.21476 12.5535C6.21476 12.963 5.88246 13.2953 5.47303 13.2953C5.0636 13.2953 4.72636 12.963 4.72636 12.5535C4.72636 12.1441 5.0547 11.8118 5.46413 11.8118H5.47303ZM13.1139 3.67202H6.60846L6.60876 4.62341C6.60876 5.03284 6.27647 5.36513 5.86703 5.36513C5.4576 5.36513 5.12531 5.03284 5.12531 4.62341L5.12478 3.69447C2.90926 3.88058 1.69824 5.22357 1.69824 7.52316V7.94931H18.0162L18.0163 7.52316C18.0202 6.30178 17.6918 5.35237 17.0401 4.69966C16.468 4.12586 15.6317 3.78318 14.5987 3.69494L14.5978 4.62341C14.5978 5.03284 14.2656 5.36513 13.8561 5.36513C13.4467 5.36513 13.1144 5.03284 13.1144 4.62341L13.1139 3.67202Z" fill="#62F4F4"/>
</g>
</g>
</svg>
