<svg width="16" height="18" viewBox="0 0 16 18" fill="none" xmlns="http://www.w3.org/2000/svg">
<g id="Iconly/Bold/Document">
<g id="Document">
<path id="Vector" d="M11.5773 0.0606842C14.266 0.0606842 15.7631 1.61002 15.7631 4.26477V13.2561C15.7631 15.9544 14.266 17.4689 11.5773 17.4689H4.28238C1.63633 17.4689 0.0957031 15.9544 0.0957031 13.2561V4.26477C0.0957031 1.61002 1.63633 0.0606842 4.28238 0.0606842H11.5773ZM4.5174 12.0201C4.25627 11.994 4.00385 12.1159 3.86459 12.3422C3.72532 12.5598 3.72532 12.847 3.86459 13.0733C4.00385 13.2909 4.25627 13.4215 4.5174 13.3867H11.3414C11.6887 13.3519 11.9507 13.0551 11.9507 12.7078C11.9507 12.3509 11.6887 12.055 11.3414 12.0201H4.5174ZM11.3414 8.0502H4.5174C4.14225 8.0502 3.83848 8.35571 3.83848 8.72999C3.83848 9.10427 4.14225 9.40891 4.5174 9.40891H11.3414C11.7157 9.40891 12.0203 9.10427 12.0203 8.72999C12.0203 8.35571 11.7157 8.0502 11.3414 8.0502ZM7.11906 4.1081H4.5174V4.1168C4.14225 4.1168 3.83848 4.42145 3.83848 4.79573C3.83848 5.17 4.14225 5.47465 4.5174 5.47465H7.11906C7.49421 5.47465 7.79885 5.17 7.79885 4.78615C7.79885 4.41274 7.49421 4.1081 7.11906 4.1081Z" fill="#24CCCC"/>
</g>
</g>
</svg>
