<svg width="19" height="21" viewBox="0 0 19 21" fill="none" xmlns="http://www.w3.org/2000/svg">
<g id="Iconly/Bold/Home">
<g id="Home">
<path id="Vector" d="M6.84942 19.3197V16.3169C6.84942 15.5504 7.47536 14.929 8.2475 14.929H11.07C11.4408 14.929 11.7964 15.0752 12.0586 15.3355C12.3208 15.5958 12.4681 15.9488 12.4681 16.3169V19.3197C12.4658 19.6384 12.5916 19.9448 12.8178 20.171C13.044 20.3971 13.3517 20.5243 13.6727 20.5243H15.5984C16.4977 20.5266 17.3611 20.1736 17.9978 19.5431C18.6346 18.9126 18.9925 18.0565 18.9925 17.1636V8.6092C18.9925 7.888 18.6704 7.2039 18.1132 6.74119L11.5624 1.54742C10.4229 0.636777 8.79024 0.66618 7.68475 1.61725L1.2835 6.74119C0.699905 7.19025 0.351099 7.87638 0.333862 8.6092V17.1549C0.333862 19.0158 1.85344 20.5243 3.72793 20.5243H5.60962C6.27636 20.5243 6.81821 19.9903 6.82304 19.3284L6.84942 19.3197Z" fill="white"/>
</g>
</g>
</svg>
