<svg width="22" height="22" viewBox="0 0 22 22" fill="none" xmlns="http://www.w3.org/2000/svg">
<g id="Iconly/Light-Outline/Plus">
<g id="Plus">
<path id="Combined-Shape" fill-rule="evenodd" clip-rule="evenodd" d="M15.6199 0.626984C19.2069 0.626984 21.617 3.14491 21.617 6.89213V15.6248C21.617 19.372 19.2069 21.8899 15.6199 21.8899H6.35126C2.76425 21.8899 0.354126 19.372 0.354126 15.6248V6.89213C0.354126 3.14491 2.76425 0.626984 6.35126 0.626984H15.6199ZM15.6199 2.11044H6.35126C3.60983 2.11044 1.83759 3.98653 1.83759 6.89213V15.6248C1.83759 18.5304 3.60983 20.4064 6.35126 20.4064H15.6199C18.3623 20.4064 20.1336 18.5304 20.1336 15.6248V6.89213C20.1336 3.98653 18.3623 2.11044 15.6199 2.11044ZM10.9856 6.88451C11.395 6.88451 11.7273 7.21681 11.7273 7.62624V10.5068L14.6117 10.507C15.0211 10.507 15.3534 10.8393 15.3534 11.2488C15.3534 11.6582 15.0211 11.9905 14.6117 11.9905L11.7273 11.9903V14.8724C11.7273 15.2819 11.395 15.6142 10.9856 15.6142C10.5762 15.6142 10.2439 15.2819 10.2439 14.8724V11.9903L7.35952 11.9905C6.94909 11.9905 6.61779 11.6582 6.61779 11.2488C6.61779 10.8393 6.94909 10.507 7.35952 10.507L10.2439 10.5068V7.62624C10.2439 7.21681 10.5762 6.88451 10.9856 6.88451Z" fill="#62F4F4"/>
</g>
</g>
</svg>
