<svg width="20" height="20" viewBox="0 0 20 20" fill="none" xmlns="http://www.w3.org/2000/svg">
<g id="Iconly/Bold/Search">
<g id="Search">
<path id="Vector" d="M15.6963 15.3605C16.0666 14.9927 16.6603 14.9927 17.0306 15.3605L19.4783 17.3363H19.5208C20.0161 17.8369 20.0161 18.6484 19.5208 19.1489C19.0256 19.6495 18.2227 19.6495 17.7275 19.1489L15.6963 16.8209L15.6192 16.7339C15.4756 16.5522 15.3963 16.3256 15.3963 16.0907C15.3963 15.8167 15.5042 15.5539 15.6963 15.3605ZM8.94798 0.36145C11.1277 0.36145 13.2181 1.23665 14.7594 2.79453C16.3007 4.3524 17.1666 6.46532 17.1666 8.66849C17.1666 13.2563 13.487 16.9755 8.94798 16.9755C4.40897 16.9755 0.72937 13.2563 0.72937 8.66849C0.72937 4.08064 4.40897 0.36145 8.94798 0.36145Z" fill="#24CCCC"/>
</g>
</g>
</svg>
