<svg width="14" height="15" viewBox="0 0 14 15" fill="none" xmlns="http://www.w3.org/2000/svg">
<g id="Iconly/Bold/Volume-Down">
<g id="Volume-Down">
<path id="Vector" d="M7.7144 0.977546C8.49372 0.977546 9.22057 1.53824 9.48295 2.43694C9.57929 2.81259 9.61845 3.18905 9.65605 3.5519L9.6913 3.8819C9.82601 4.98324 9.82601 10.3939 9.6913 11.5032L9.65605 11.8452C9.62237 12.1904 9.58791 12.5477 9.48844 12.9289C9.22605 13.8252 8.52662 14.4068 7.73241 14.4068C7.70735 14.4068 7.68228 14.4068 7.65409 14.406C7.21547 14.406 6.73848 14.1368 6.46826 13.9021L3.83422 11.7083H2.48157C1.43751 11.7083 0.673064 10.9529 0.53443 9.78431C0.374649 8.61568 0.405979 6.61083 0.53443 5.54874C0.685595 4.44259 1.48607 3.67605 2.48157 3.67605H3.83422L6.41813 1.51421C6.72986 1.24348 7.2797 0.975951 7.7144 0.977546ZM11.7272 3.40852C12.0397 3.18986 12.4673 3.26835 12.6812 3.58474C13.4378 4.6989 13.8552 6.15748 13.8552 7.69215C13.8552 9.22683 13.4378 10.6854 12.6812 11.7996C12.5527 11.9878 12.3428 12.1007 12.118 12.1007C11.9778 12.1007 11.8423 12.0575 11.7272 11.9758C11.417 11.7547 11.3403 11.3174 11.5556 11.0002C12.1548 10.1175 12.4846 8.94248 12.4846 7.69215C12.4846 6.44103 12.1548 5.26679 11.5556 4.38411C11.3403 4.06693 11.417 3.62959 11.7272 3.40852Z" fill="#62F4F4"/>
</g>
</g>
</svg>
