<svg width="36" height="36" viewBox="0 0 36 36" fill="none" xmlns="http://www.w3.org/2000/svg">
<g id="Play">
<path id="Vector" d="M20.2612 2.89364C28.6508 4.22242 34.4014 12.1334 33.0707 20.5351C31.7428 28.9192 23.8291 34.6659 15.4395 33.3371C7.04987 32.0084 1.2993 24.0974 2.62721 15.7133C3.9579 7.31161 11.8716 1.56486 20.2612 2.89364ZM17.0737 11.7976C16.7505 11.7464 16.4303 11.771 16.1132 11.8713C15.7133 12.0187 15.3683 12.2953 15.1462 12.6515C15.0015 12.8995 14.7143 13.667 14.7119 13.6817C14.4131 14.5225 14.1016 15.9184 13.8551 17.4751C13.6199 18.9598 13.4943 20.3234 13.487 21.2255C13.4994 21.2425 13.5051 22.252 13.6279 22.6177C13.8535 23.2857 14.4248 23.7676 15.1007 23.8747L15.1595 23.884C15.6026 23.9391 16.5887 23.7039 16.591 23.6892C18.2508 23.2897 21.6403 21.7641 23.0861 20.6232L23.1882 20.549C23.3754 20.4131 23.6207 20.196 23.6741 20.1443C23.958 19.8731 24.136 19.5099 24.1962 19.1295C24.2639 18.7022 24.1945 18.2847 23.9959 17.9221C23.9464 17.854 23.7656 17.5694 23.5924 17.3313C22.5923 15.8481 19.783 13.2353 18.2397 12.3285C18.006 12.1876 17.4094 11.8658 17.0737 11.7976Z" fill="white"/>
</g>
</svg>
